<svg width="7" height="7" viewBox="0 0 7 7" fill="none" xmlns="http://www.w3.org/2000/svg">
<path d="M3.47871 0C2.79069 0 2.11811 0.204023 1.54604 0.586268C0.973973 0.968514 0.528098 1.51181 0.264803 2.14746C0.00150742 2.78312 -0.0673828 3.48257 0.0668439 4.15737C0.201071 4.83218 0.532386 5.45202 1.01889 5.93853C1.5054 6.42503 2.12525 6.75635 2.80005 6.89058C3.47485 7.0248 4.1743 6.95591 4.80996 6.69262C5.44561 6.42932 5.98891 5.98345 6.37115 5.41138C6.7534 4.83931 6.95742 4.16673 6.95742 3.47871C6.95742 2.5561 6.59091 1.67128 5.93853 1.01889C5.28615 0.366506 4.40132 0 3.47871 0ZM3.47871 5.73677C3.03211 5.73677 2.59553 5.60434 2.2242 5.35622C1.85286 5.1081 1.56344 4.75544 1.39253 4.34283C1.22162 3.93023 1.17691 3.4762 1.26403 3.03818C1.35116 2.60016 1.56622 2.19781 1.88202 1.88202C2.19781 1.56622 2.60016 1.35116 3.03818 1.26403C3.47621 1.17691 3.93023 1.22162 4.34283 1.39253C4.75544 1.56344 5.1081 1.85286 5.35622 2.2242C5.60434 2.59553 5.73678 3.03211 5.73678 3.47871C5.73678 4.07759 5.49887 4.65193 5.0754 5.0754C4.65193 5.49887 4.07759 5.73677 3.47871 5.73677Z" fill="black"/>
</svg>
